# xmcd
#
# Track frame offsets:
#	150
#	16283
#	26453
#	40457
#	51456
#	68847
#	80475
#	95367
#	107546
#	120467
#	136291
#	148497
#	164008
#	179293
#	193782
#	203070
#	218611
#	228316
#	240014
#	253467
#	264382
#	273955
#	286525
#
# Disc length: 3937 seconds
#
# Revision: 0
# Processed by: cddbd v1.5.2PL0 Copyright (c) Steve Scherf et al.
# Submitted via: EasyCDDAExtractor 15.3.0.1
#
DISCID=490f5f17
DTITLE=Robbins Marty - My Woman My Woman My Wife - Marty After Midnight
DYEAR=2012
DGENRE=Country
TTITLE0=My Woman My Woman My Wife
TTITLE1=Can't Help Falling In Love
TTITLE2=Love Me Tender
TTITLE3=I've Got A Woman's Love
TTITLE4=Three Little Words
TTITLE5=Maria (If I Could)
TTITLE6=Master's Touch
TTITLE7=My Happy Heart Sings
TTITLE8=Without You To Love
TTITLE9=Very Special Way
TTITLE10=Martha Ellen Jenkins
TTITLE11=I'm In The Mood For Love
TTITLE12=Misty
TTITLE13=Looking Back
TTITLE14=September In The Rain
TTITLE15=Don't Throw Me Away
TTITLE16=Pennies From Heaven
TTITLE17=Summertime
TTITLE18=All The Way
TTITLE19=It Had To Be You
TTITLE20=I'm Having A Ball
TTITLE21=If I Could Cry
TTITLE22=On The Sunny Side Of The Street
EXTD=
EXTT0=
EXTT1=
EXTT2=
EXTT3=
EXTT4=
EXTT5=
EXTT6=
EXTT7=
EXTT8=
EXTT9=
EXTT10=
EXTT11=
EXTT12=
EXTT13=
EXTT14=
EXTT15=
EXTT16=
EXTT17=
EXTT18=
EXTT19=
EXTT20=
EXTT21=
EXTT22=
PLAYORDER=
